<svg xmlns="http://www.w3.org/2000/svg" xmlns:xlink="http://www.w3.org/1999/xlink" width="794" zoomAndPan="magnify" viewBox="0 0 595.5 842.249979" height="1123" preserveAspectRatio="xMidYMid meet" version="1.0"><defs><clipPath id="5f11db8c4d"><path d="M 10 109 L 585 109 L 585 641.894531 L 10 641.894531 Z M 10 109 " clip-rule="nonzero"/></clipPath></defs><g clip-path="url(#5f11db8c4d)"><path fill="#231f20" d="M 521.46875 374.992188 C 521.46875 385.507812 521.46875 396.140625 521.46875 406.65625 C 521.46875 479.792969 521.46875 553.046875 521.46875 626.179688 C 521.46875 634.6875 514.253906 641.894531 505.738281 641.894531 C 488.710938 641.894531 471.683594 641.894531 454.65625 641.894531 C 333.566406 641.894531 212.359375 641.894531 91.269531 641.894531 C 82.757812 641.894531 75.542969 634.6875 75.542969 626.179688 C 75.542969 615.664062 75.542969 605.03125 75.542969 594.515625 C 75.542969 521.382812 75.542969 448.128906 75.542969 374.992188 C 75.542969 354.671875 106.996094 354.789062 106.996094 374.992188 C 106.996094 385.507812 106.996094 396.140625 106.996094 406.65625 C 106.996094 474.59375 106.996094 542.53125 106.996094 610.464844 C 118.824219 610.464844 130.53125 610.464844 142.355469 610.464844 C 258.242188 610.464844 374.125 610.464844 490.011719 610.464844 C 490.011719 605.148438 490.011719 599.832031 490.011719 594.515625 C 490.011719 521.382812 490.011719 448.128906 490.011719 374.992188 C 490.011719 354.789062 521.46875 354.789062 521.46875 374.992188 Z M 579.882812 358.097656 C 500.773438 286.617188 421.78125 215.253906 342.789062 143.890625 C 331.554688 133.730469 320.441406 123.6875 309.207031 113.527344 C 302.703125 107.621094 293.480469 107.621094 286.976562 113.527344 C 207.628906 185.007812 128.28125 256.371094 48.9375 327.734375 C 37.703125 337.894531 26.46875 347.9375 15.234375 358.097656 C 0.0976562 371.683594 22.449219 393.898438 37.464844 380.308594 C 116.8125 308.949219 196.039062 237.585938 275.386719 166.222656 C 282.957031 159.488281 290.40625 152.753906 297.972656 145.902344 C 373.300781 213.953125 448.625 282.007812 523.949219 349.945312 C 535.183594 360.105469 546.300781 370.148438 557.535156 380.308594 C 572.550781 393.777344 594.902344 371.683594 579.882812 358.097656 Z M 459.03125 198.476562 C 459.03125 192.214844 459.03125 186.070312 459.03125 179.808594 C 471.800781 179.808594 484.574219 179.808594 497.34375 179.808594 C 497.34375 207.929688 497.34375 236.050781 497.34375 264.167969 C 497.34375 284.371094 528.800781 284.492188 528.800781 264.167969 C 528.800781 230.851562 528.800781 197.53125 528.800781 164.09375 C 528.800781 155.589844 521.585938 148.382812 513.070312 148.382812 C 489.777344 148.382812 466.597656 148.382812 443.304688 148.382812 C 434.789062 148.382812 427.578125 155.589844 427.578125 164.09375 C 427.578125 175.554688 427.578125 187.015625 427.578125 198.476562 C 427.457031 218.800781 459.03125 218.800781 459.03125 198.476562 Z M 459.03125 198.476562 " fill-opacity="1" fill-rule="nonzero"/></g></svg>