<svg xmlns="http://www.w3.org/2000/svg" xmlns:xlink="http://www.w3.org/1999/xlink" width="794" zoomAndPan="magnify" viewBox="0 0 595.5 842.249979" height="1123" preserveAspectRatio="xMidYMid meet" version="1.0"><path fill="#000000" d="M 326.757812 0 C 326.242188 0.128906 325.730469 0.320312 325.214844 0.515625 L 61.792969 82.851562 C 54.914062 85.105469 50.347656 91.601562 50.476562 98.804688 L 50.476562 757.515625 C 50.476562 765.042969 55.554688 771.601562 62.824219 773.46875 L 326.242188 839.339844 C 331.195312 840.625 336.40625 839.53125 340.457031 836.378906 C 344.445312 833.292969 346.824219 828.46875 346.824219 823.386719 L 346.824219 16.46875 C 346.886719 11.707031 344.828125 7.203125 341.292969 4.050781 C 337.753906 0.902344 332.996094 -0.578125 328.300781 0 C 327.785156 0 327.273438 0 326.757812 0 Z M 313.894531 39.109375 L 313.894531 802.285156 L 83.402344 744.648438 L 83.402344 111.15625 Z M 379.75 65.871094 L 379.75 98.804688 L 511.460938 98.804688 L 511.460938 741.046875 L 379.75 741.046875 L 379.75 773.984375 L 527.925781 773.984375 C 536.992188 773.984375 544.386719 766.585938 544.386719 757.515625 L 544.386719 82.339844 C 544.386719 73.269531 536.992188 65.871094 527.925781 65.871094 Z M 280.96875 395.226562 C 271.898438 395.226562 264.503906 406.289062 264.503906 419.925781 C 264.503906 433.5625 271.898438 444.628906 280.96875 444.628906 C 290.035156 444.628906 297.433594 433.5625 297.433594 419.925781 C 297.433594 406.289062 290.035156 395.226562 280.96875 395.226562 Z M 280.96875 395.226562 " fill-opacity="1" fill-rule="nonzero"/></svg>