<svg xmlns="http://www.w3.org/2000/svg" xmlns:xlink="http://www.w3.org/1999/xlink" width="794" zoomAndPan="magnify" viewBox="0 0 595.5 842.249979" height="1123" preserveAspectRatio="xMidYMid meet" version="1.0"><defs><clipPath id="cba061a105"><path d="M 4 93 L 588 93 L 588 696.152344 L 4 696.152344 Z M 4 93 " clip-rule="nonzero"/></clipPath></defs><g clip-path="url(#cba061a105)"><path fill="#000000" d="M 283.410156 696.152344 C 256.976562 694.210938 234.554688 695.371094 213.5 690.539062 C 134.441406 672.335938 77.886719 623.871094 40.324219 553.449219 C 7.640625 492.230469 0.238281 425.851562 5.90625 357.371094 C 6.484375 350.554688 7.722656 343.621094 8.015625 336.730469 C 10.496094 270.683594 41.855469 217.96875 85.046875 171.613281 C 111.109375 143.539062 145.984375 128.351562 181.726562 115.347656 C 221.234375 100.9375 261.734375 97.679688 303.144531 101.433594 C 306.535156 102.199219 310.054688 102.199219 313.445312 101.433594 C 357.09375 82.488281 396.558594 99.828125 432.546875 120.011719 C 465.023438 138.171875 493.898438 163.351562 522.402344 187.75 C 534.496094 199.023438 544.054688 212.730469 550.453125 227.960938 C 583.667969 300.785156 594.671875 381.75 582.097656 460.777344 C 579.78125 476.296875 578.625 492.023438 576.429688 507.585938 C 568.15625 565.378906 533.65625 605.5 487.15625 637.082031 C 453.730469 659.785156 419.019531 680.964844 378.351562 687.195312 C 345.589844 692.230469 312.207031 693.59375 283.410156 696.152344 Z M 554.382812 397.863281 C 553.550781 355.765625 546.429688 314.023438 533.242188 274.027344 C 525.714844 252.023438 517.644531 227.625 502.296875 211.402344 C 470.679688 177.332031 433.058594 149.347656 391.300781 128.847656 C 369.210938 118.238281 345.300781 111.921875 320.066406 115.675781 C 307.363281 117.617188 294.789062 120.671875 282.046875 121.417969 C 233.394531 124.222656 186.191406 131.859375 144.828125 159.640625 C 89.058594 197.039062 55.054688 249.011719 42.433594 314.851562 C 35.132812 355.328125 33.9375 396.667969 38.878906 437.496094 C 47.605469 517.90625 82.148438 583.625 148.007812 632.539062 C 193.226562 666.144531 243.40625 675.882812 298.882812 674.152344 C 364.082031 672.089844 423.777344 657.140625 474.5 615.328125 C 504.40625 590.558594 532.042969 562.777344 538.742188 522.53125 C 545.570312 481.207031 549.253906 439.4375 554.382812 397.863281 Z M 554.382812 397.863281 " fill-opacity="1" fill-rule="nonzero"/></g><path fill="#000000" d="M 453.605469 523.394531 C 429.898438 537.144531 424.648438 536.8125 410.871094 518.070312 C 395.277344 496.8125 373.636719 484.429688 350.597656 473.410156 C 321.636719 459.578125 259.582031 478.898438 239.601562 503.214844 C 228.558594 516.667969 217.09375 529.796875 205.554688 542.839844 C 194.011719 555.882812 184.332031 556.339844 167.828125 544.945312 C 208.285156 484.46875 260.121094 443.808594 337.441406 446.988281 C 382.117188 448.804688 431.433594 480.792969 453.605469 523.394531 Z M 453.605469 523.394531 " fill-opacity="1" fill-rule="nonzero"/><path fill="#000000" d="M 429.777344 306.554688 C 429.980469 329.878906 422 339.578125 402.597656 339.125 C 383.195312 338.671875 371.199219 327.277344 371.488281 308.371094 C 371.488281 291.402344 388.035156 276.132812 405.949219 276.460938 C 422.992188 276.753906 429.613281 285.171875 429.777344 306.554688 Z M 429.777344 306.554688 " fill-opacity="1" fill-rule="nonzero"/><path fill="#000000" d="M 202.285156 334.085938 C 201.210938 339.535156 201.789062 348.621094 197.65625 354.316406 C 192.691406 360.851562 185.4375 365.277344 177.339844 366.699219 C 169.753906 366.800781 162.511719 363.519531 157.605469 357.742188 C 144.453125 339.039062 148.667969 318.320312 166.253906 305.5625 C 185.285156 291.734375 198.773438 297.886719 201.335938 321.539062 C 201.707031 324.882812 201.871094 328.472656 202.285156 334.085938 Z M 202.285156 334.085938 " fill-opacity="1" fill-rule="nonzero"/></svg>