<svg xmlns="http://www.w3.org/2000/svg" xmlns:xlink="http://www.w3.org/1999/xlink" width="794" zoomAndPan="magnify" viewBox="0 0 595.5 842.249979" height="1123" preserveAspectRatio="xMidYMid meet" version="1.0"><path fill="#000000" d="M 309.171875 120.582031 C 314.25 103.460938 325.402344 104.335938 335.976562 104.335938 C 368.222656 104.335938 395.316406 119.460938 422.609375 133.835938 C 439.714844 142.878906 456.402344 152.664062 473.335938 162 C 525.519531 190.789062 559.394531 234 573.75 291.828125 C 580.441406 318.316406 585.445312 345.207031 588.730469 372.332031 C 595.03125 423.664062 582.539062 475.546875 553.566406 518.367188 C 524.4375 562.117188 489.902344 600.15625 441.835938 624.238281 C 385.578125 652.449219 326.152344 659.40625 264.441406 652.78125 C 219.667969 647.949219 174.1875 643.742188 134.570312 620.367188 C 104.398438 602.535156 73.609375 583.492188 48.804688 559.324219 C 11.6875 523.03125 0.0390625 474.074219 1.992188 423.285156 C 3.898438 365.824219 15.785156 309.132812 37.113281 255.746094 C 53.757812 214.371094 76.769531 177.246094 111.144531 148 C 128.871094 132.917969 148.136719 120.542969 171.394531 116.5 C 196.570312 112.085938 221.828125 108 247.296875 105.25 C 256.621094 104.210938 266.484375 107.082031 275.96875 108.875 C 285.457031 110.664062 298.605469 111.835938 296.359375 124.253906 C 293.820312 137.664062 281.335938 130.625 272.265625 130.167969 C 207.722656 126.835938 149.921875 140.082031 107.980469 195.125 C 72.855469 241.246094 53.050781 293.453125 43.398438 349.871094 C 38.851562 371.46875 35.777344 393.351562 34.203125 415.371094 C 31.789062 479.867188 51.300781 533.78125 107.144531 572.867188 C 182.464844 625.53125 266.398438 640.195312 353.992188 627.03125 C 419.53125 617.28125 472.382812 579.949219 512.621094 525.574219 C 555.476562 467.621094 566.257812 403.992188 550.65625 334.871094 C 543.496094 303.125 536.417969 271.25 518.195312 243.207031 C 499.804688 213.898438 473.953125 190.023438 443.292969 174.042969 C 425.3125 164.792969 407.585938 154.917969 389.984375 144.875 C 372.382812 134.832031 355.78125 127.667969 335.390625 127.628906 C 326.652344 127.585938 318.035156 123.082031 309.171875 120.582031 Z M 309.171875 120.582031 " fill-opacity="1" fill-rule="nonzero"/><path fill="#000000" d="M 179.925781 495.992188 L 165.902344 483.496094 C 170.484375 479.328125 175.183594 470.996094 179.636719 470.996094 C 238.140625 472.703125 291.660156 448.617188 347.875 438.914062 C 356.488281 437.410156 364.855469 434.285156 373.425781 432.578125 C 380.246094 430.992188 387.230469 430.25 394.234375 430.371094 C 403.261719 430.828125 413.207031 433.328125 412.789062 444.746094 C 412.457031 454.953125 402.929688 454.996094 394.894531 456.324219 C 359.441406 462.324219 324.015625 468.589844 288.617188 475.121094 C 253.125 482.035156 217.710938 488.910156 179.925781 495.992188 Z M 179.925781 495.992188 " fill-opacity="1" fill-rule="nonzero"/><path fill="#000000" d="M 216.878906 305.164062 C 216.878906 325.996094 209.261719 336.996094 194.578125 337.453125 C 177.015625 337.996094 167.359375 327.5 166.613281 306.953125 C 166.027344 291.457031 180.59375 277.414062 196.90625 277.792969 C 211.179688 277.957031 216.878906 285.832031 216.878906 305.164062 Z M 216.878906 305.164062 " fill-opacity="1" fill-rule="nonzero"/><path fill="#000000" d="M 397.601562 279.871094 C 397.9375 297.871094 389.28125 309.539062 375.507812 309.957031 C 359.773438 310.453125 351.648438 300.316406 351.121094 279.539062 C 350.746094 262.328125 358.195312 252.871094 372.554688 252.542969 C 387.742188 252.164062 397.101562 262.667969 397.601562 279.871094 Z M 397.601562 279.871094 " fill-opacity="1" fill-rule="nonzero"/></svg>