<svg xmlns="http://www.w3.org/2000/svg" xmlns:xlink="http://www.w3.org/1999/xlink" width="794" zoomAndPan="magnify" viewBox="0 0 595.5 842.249979" height="1123" preserveAspectRatio="xMidYMid meet" version="1.0"><defs><clipPath id="65dfe8eacd"><path d="M 6 98 L 594.984375 98 L 594.984375 702 L 6 702 Z M 6 98 " clip-rule="nonzero"/></clipPath></defs><g clip-path="url(#65dfe8eacd)"><path fill="#000000" d="M 594.953125 457.617188 C 591.226562 482.433594 589.945312 517.652344 580.164062 550.675781 C 557.203125 627.566406 505.464844 675.234375 425.03125 691.007812 C 363.433594 703.015625 301.3125 706.015625 240.15625 694.652344 C 168.378906 681.320312 103.457031 652.664062 65.101562 584.660156 C 55.964844 568.648438 46.625 551.675781 41.777344 533.941406 C 30.078125 491.59375 21.058594 448.488281 10.761719 405.699219 C 0.0195312 360.832031 12.605469 318.601562 24.183594 275.894531 C 35.195312 236.242188 58.414062 201.054688 90.554688 175.308594 C 132.992188 140.964844 180.402344 109.023438 236.589844 101.5 C 281.554688 95.453125 326.921875 96.8125 371.085938 114.46875 C 414.046875 131.679688 454.84375 151.609375 490.511719 180.988281 C 526.648438 210.878906 555 249.054688 573.152344 292.265625 C 585.171875 320.285156 586.417969 353.265625 590.664062 384.328125 C 593.550781 405.179688 593.269531 426.472656 594.953125 457.617188 Z M 333.375 680.402344 C 344.433594 680.402344 355.9375 682.402344 366.398438 680 C 400.140625 672.316406 436.089844 667.992188 466.308594 652.984375 C 508.988281 631.527344 538.167969 594.347656 551.269531 546.671875 C 566.136719 492.675781 567.582031 438.039062 560.371094 382.765625 C 553.554688 330.730469 543.214844 280.539062 503.941406 241.671875 C 503.382812 241.019531 502.921875 240.292969 502.578125 239.507812 C 487.589844 212.933594 465.347656 193.160156 439.9375 177.546875 C 389.765625 146.730469 337.742188 121.875 276.144531 122.273438 C 257.390625 122.273438 239.078125 120.632812 221.441406 127.476562 C 172.789062 146.367188 127.980469 171.503906 93.441406 211.53125 C 53.882812 257.722656 36.929688 313.316406 38.8125 371.878906 C 41.214844 435.730469 56.75 498.40625 84.460938 556 C 102.84375 596.597656 135.109375 629.324219 175.476562 648.300781 C 224.570312 672.082031 278.875 683.125 333.375 680.402344 Z M 333.375 680.402344 " fill-opacity="1" fill-rule="nonzero"/></g><path fill="#000000" d="M 168.257812 490.875 C 189.78125 476.90625 195.792969 477.75 208.335938 492.917969 C 220.882812 508.089844 234.304688 523.257812 252.824219 533.703125 C 302.117188 561.519531 349.003906 552.035156 395.65625 528.179688 C 412.042969 519.773438 422.425781 505.164062 429.679688 488.390625 C 431.589844 482.808594 433.921875 477.375 436.648438 472.140625 C 442.90625 462.300781 454.886719 459.054688 463.019531 464.5 C 472.84375 471.105469 468.191406 478.789062 464.746094 486.792969 C 450.519531 519.613281 426.152344 541.308594 393.332031 554.839844 C 332.734375 579.976562 274.660156 576.492188 218.199219 542.832031 C 197.355469 530.140625 184.492188 510.527344 168.257812 490.875 Z M 168.257812 490.875 " fill-opacity="1" fill-rule="nonzero"/><path fill="#000000" d="M 393.769531 338.816406 C 394.210938 332.734375 392.847656 325.886719 395.453125 321.285156 C 398.058594 316.679688 404.589844 310.273438 409.5625 310.117188 C 431.042969 309.476562 451.398438 343.859375 439.976562 362.148438 C 436.488281 367.753906 426.273438 371.394531 418.859375 371.835938 C 407.371094 372.765625 397.019531 364.925781 394.808594 353.625 C 393.988281 348.734375 393.636719 343.777344 393.769531 338.816406 Z M 393.769531 338.816406 " fill-opacity="1" fill-rule="nonzero"/><path fill="#000000" d="M 216.390625 386.207031 C 191.582031 394.492188 184.09375 393.25 175.875 382.203125 C 167.136719 370.195312 166.9375 347.980469 175.433594 337.375 C 186.613281 323.445312 205.8125 325.046875 210.941406 341.9375 C 215.152344 355.664062 214.710938 370.957031 216.390625 386.207031 Z M 216.390625 386.207031 " fill-opacity="1" fill-rule="nonzero"/></svg>