<svg xmlns="http://www.w3.org/2000/svg" xmlns:xlink="http://www.w3.org/1999/xlink" width="794" zoomAndPan="magnify" viewBox="0 0 595.5 842.249979" height="1123" preserveAspectRatio="xMidYMid meet" version="1.0"><defs><clipPath id="5f1f425404"><path d="M 0.015625 31.195312 L 594 31.195312 L 594 680.867188 L 0.015625 680.867188 Z M 0.015625 31.195312 " clip-rule="nonzero"/></clipPath></defs><g clip-path="url(#5f1f425404)"><path fill="#000000" d="M 551.765625 108.585938 C 562.980469 107.597656 571.890625 98.257812 571.890625 86.828125 L 571.890625 64.851562 C 571.890625 52.765625 561.992188 42.878906 549.894531 42.878906 L 436.839844 42.878906 C 432.992188 36.394531 426.0625 31.890625 417.925781 31.890625 L 395.929688 31.890625 C 387.789062 31.890625 380.863281 36.394531 377.011719 42.878906 L 216.886719 42.878906 C 213.039062 36.394531 206.109375 31.890625 197.972656 31.890625 L 175.976562 31.890625 C 167.839844 31.890625 160.910156 36.394531 157.0625 42.878906 L 44.003906 42.878906 C 31.90625 42.878906 22.011719 52.765625 22.011719 64.851562 L 22.011719 86.828125 C 22.011719 98.367188 30.917969 107.707031 42.136719 108.585938 L -0.09375 668.308594 C -0.316406 671.386719 0.675781 674.351562 2.765625 676.550781 C 4.855469 678.75 7.824219 680.066406 10.792969 680.066406 L 54.894531 680.066406 C 60.613281 680.066406 65.449219 675.671875 65.890625 669.957031 L 108.453125 108.804688 L 157.0625 108.804688 C 160.910156 115.289062 167.839844 119.792969 175.976562 119.792969 L 175.976562 460.417969 C 163.878906 460.417969 153.980469 470.308594 153.980469 482.394531 L 153.980469 504.371094 C 153.980469 516.457031 163.878906 526.347656 175.976562 526.347656 L 417.925781 526.347656 C 430.019531 526.347656 439.917969 516.457031 439.917969 504.371094 L 439.917969 482.394531 C 439.917969 470.308594 430.019531 460.417969 417.925781 460.417969 L 417.925781 119.792969 C 426.0625 119.792969 432.992188 115.289062 436.839844 108.804688 L 485.449219 108.804688 L 527.898438 670.066406 C 528.339844 675.78125 533.070312 680.175781 538.898438 680.175781 L 582.996094 680.175781 C 586.078125 680.175781 588.9375 678.859375 591.027344 676.660156 C 593.117188 674.464844 594.214844 671.386719 593.886719 668.417969 L 551.65625 108.695312 Z M 549.894531 86.828125 L 439.917969 86.828125 L 439.917969 64.851562 L 549.894531 64.851562 Z M 219.96875 86.828125 L 219.96875 64.851562 L 373.933594 64.851562 L 373.933594 86.828125 Z M 197.972656 53.863281 L 197.972656 97.707031 L 175.976562 97.707031 L 175.976562 53.863281 Z M 44.003906 64.851562 L 153.980469 64.851562 L 153.980469 86.828125 L 44.003906 86.828125 Z M 44.773438 658.199219 L 22.78125 658.199219 L 64.242188 108.804688 L 86.347656 108.804688 Z M 417.925781 504.371094 L 175.976562 504.371094 L 175.976562 482.394531 L 417.925781 482.394531 Z M 395.929688 460.417969 L 197.972656 460.417969 L 197.972656 119.792969 C 206.109375 119.792969 213.039062 115.289062 216.886719 108.804688 L 377.011719 108.804688 C 380.863281 115.289062 387.789062 119.792969 395.929688 119.792969 Z M 395.929688 97.816406 L 395.929688 53.863281 L 417.925781 53.863281 L 417.925781 97.816406 Z M 549.125 658.199219 L 507.554688 108.804688 L 529.660156 108.804688 L 571.121094 658.199219 Z M 549.125 658.199219 " fill-opacity="1" fill-rule="nonzero"/></g></svg>