<svg xmlns="http://www.w3.org/2000/svg" xmlns:xlink="http://www.w3.org/1999/xlink" width="794" zoomAndPan="magnify" viewBox="0 0 595.5 842.249979" height="1123" preserveAspectRatio="xMidYMid meet" version="1.0"><defs><clipPath id="18e850c4c4"><path d="M 0.015625 92 L 581 92 L 581 785 L 0.015625 785 Z M 0.015625 92 " clip-rule="nonzero"/></clipPath></defs><g clip-path="url(#18e850c4c4)"><path fill="#000000" d="M 540.222656 377.257812 L 173.472656 377.257812 L 173.472656 144.382812 C 173.472656 116.125 150.535156 93.191406 122.265625 93.191406 C 78.902344 94.816406 1.347656 78.691406 -0.132812 144.382812 C -0.132812 144.382812 -0.132812 410.695312 -0.132812 410.695312 C 1.792969 463.367188 51.074219 464.253906 91.480469 461.886719 L 113.53125 771.105469 C 114.125 778.796875 120.488281 784.863281 128.332031 784.863281 L 374.757812 784.863281 C 382.453125 784.863281 388.964844 778.796875 389.558594 771.105469 L 397.992188 652.890625 C 492.714844 632.621094 560.796875 551.398438 563.90625 453.898438 C 594.6875 432.738281 579.890625 375.925781 540.222656 377.257812 Z M 540.222656 406.847656 C 554.582031 406.699219 554.582031 432.589844 540.222656 432.445312 L 173.472656 432.445312 C 173.472656 429.632812 173.472656 409.214844 173.472656 406.847656 Z M 29.46875 410.84375 L 29.46875 144.53125 C 29.46875 132.695312 39.085938 122.929688 51.074219 122.929688 L 122.414062 122.929688 C 134.253906 122.929688 144.023438 132.546875 144.023438 144.53125 L 144.023438 410.84375 C 144.316406 431.851562 121.378906 434.070312 105.394531 432.445312 C 86.152344 429.335938 28.875 444.132812 29.46875 410.84375 Z M 381.566406 626.261719 C 363.066406 629.960938 317.480469 628.035156 297.945312 628.480469 C 278.703125 628.183594 278.703125 658.367188 297.945312 658.070312 C 309.042969 657.773438 357.738281 658.515625 367.800781 657.476562 L 360.84375 755.421875 L 142.246094 755.421875 L 121.230469 462.035156 C 122.117188 462.035156 157.785156 462.035156 158.675781 462.035156 C 158.675781 462.035156 534.007812 462.035156 534.007812 462.035156 C 527.347656 545.183594 465.335938 613.09375 381.566406 626.261719 Z M 381.566406 626.261719 " fill-opacity="1" fill-rule="nonzero"/></g></svg>